PathFileType	4	(X/Y/Z)	C:/Users/beibeiliu/ov580/test_trc/User1\sequence.36_training_dense_left.trc
DataRate	CameraRate	NumFrames	NumMarkers	Units	OrigDataRate	OrigDataStartFrame	OrigNumFrames
120	120	15	19	mm	120	1	246
Frame#	Time	ThumbCMC			ThumbMCP			ThumbIP			ThumbTip			IndexMCP			IndexPIP			IndexTip			MiddleMCP			MiddlePIP			MiddleTip			RingMCP			RingPIP			RingTip			PinkyMCP			PinkyPIP			PinkyTip			BackHand1			BackHand2			BackHand3	
		X0	Y0	Z0	X1	Y1	Z1	X2	Y2	Z2	X3	Y3	Z3	X4	Y4	Z4	X5	Y5	Z5	X6	Y6	Z6	X7	Y7	Z7	X8	Y8	Z8	X9	Y9	Z9	X10	Y10	Z10	X11	Y11	Z11	X12	Y12	Z12	X13	Y13	Z13	X14	Y14	Z14	X15	Y15	Z15	X16	Y16	Z16	X17	Y17	Z17	X18	Y18	Z18	
0	0	-114.495	-10.5883	70.7054	-92.1064	-25.3681	65.011	-66.5803	-30.6875	55.6251	-45.0069	-35.5691	50.982	-118.68	-29.3718	-16.084	-112.701	-36.1708	-39.2093	-109.476	-40.4804	-69.3154	-142.974	-26.1776	-30.0915	-141.278	-32.664	-56.9787	-142.003	-40.3022	-86.0552	-166.475	-27.0849	-27.5393	-167.014	-30.2852	-50.1008	-168.695	-37.0904	-75.091	-199.03	-31.4985	-7.88163	-204.593	-34.1992	-22.3351	-208.289	-29.727	-47.3101	-171.593	-4.79773	21.433	-178.418	11.5447	55.7965	-141.096	2.82136	41.7818	
1	0.00833333	-116.288	-11.9064	68.3591	-91.3441	-24.4897	63.8561	-70.9208	-33.1518	52.321	-46.2559	-37.2355	50.2349	-119.784	-29.5261	-17.8548	-114.523	-35.8638	-43.6978	-112.198	-40.786	-70.5101	-143.002	-26.4007	-32.6437	-141.511	-31.9361	-54.5801	-143.176	-39.714	-86.2969	-171.861	-25.5767	-26.3439	-166.879	-30.7377	-50.6309	-168.476	-36.9657	-80.3733	-196.752	-30.9253	-4.47838	-207.516	-33.7718	-27.1739	-211.53	-28.0169	-45.2804	-175.433	-4.4796	24.7728	-177.726	11.6704	53.0448	-140.967	1.41574	40.509	
2	0.0166667	-117.534	-11.6014	70.1132	-94.6838	-24.3875	65.2375	-66.6217	-32.3349	51.9052	-50.7411	-36.9656	51.5575	-114.803	-30.5525	-20.4135	-115.511	-35.7791	-41.6379	-109.415	-40.3307	-65.8287	-146.119	-24.4816	-29.8159	-142.194	-31.7891	-55.9135	-140.605	-38.9642	-84.4138	-167.485	-25.2993	-23.9365	-167.586	-31.506	-55.0855	-170.042	-37.0258	-79.4051	-198.943	-29.7249	-5.82265	-207.672	-33.6743	-24.8769	-211.142	-30.2053	-46.1163	-176.435	-3.6324	23.9086	-177.846	10.1366	53.4507	-143.59	2.40689	42.9138	
3	0.025	-112.642	-11.7993	65.8676	-93.0725	-25.0571	61.8997	-68.4931	-32.0482	52.2411	-50.4212	-35.7013	53.3728	-117.407	-29.6662	-20.855	-110.557	-34.8697	-45.1044	-114.772	-39.8663	-66.7317	-143.624	-24.2554	-28.8418	-142.021	-31.7198	-58.6735	-143.001	-38.72	-86.0566	-166.672	-25.3203	-27.1379	-168.346	-30.5913	-54.4407	-167.88	-36.0787	-74.9502	-194.053	-30.0723	-5.51026	-203.093	-32.1791	-26.1761	-211.076	-27.1404	-46.2787	-173.975	-5.33138	21.2301	-180.902	10.6747	51.0575	-141.13	2.1333	39.634	
4	0.0333333	-117.239	-11.7079	67.8887	-90.2414	-25.0071	60.9728	-66.3459	-30.9024	54.8448	-46.7826	-34.6385	54.1562	-114.474	-28.4033	-17.7181	-112.276	-33.7942	-40.8995	-109.467	-38.78	-66.0347	-140.228	-24.3417	-34.7501	-138.587	-32.6543	-60.9567	-140.023	-38.0147	-84.8064	-170.939	-25.424	-26.9626	-166.38	-30.0403	-56.3404	-169.159	-36.8369	-80.21	-199.43	-30.0007	-7.24361	-201.426	-32.5046	-25.5954	-211.106	-26.9255	-47.2348	-173.998	-3.53598	20.8736	-174.372	10.464	50.2355	-141.366	1.11587	39.375	
5	0.0416667	-115.661	-12.4209	64.3881	-91.8307	-24.4214	61.1577	-66.5101	-31.7872	50.4725	-46.0149	-34.2517	53.5245	-114.051	-27.9114	-16.3333	-114.628	-34.1763	-45.3386	-110.327	-38.6793	-66.2194	-144.744	-24.3002	-33.8381	-139.893	-30.8136	-58.4943	-143.509	-38.1748	-86.3367	-171.506	-24.7975	-27.1004	-169.55	-29.7357	-56.2337	-170.753	-35.8695	-77.2368	-197.112	-28.5666	-7.51601	-201.387	-31.7745	-23.795	-211.551	-28.8489	-46.7344	-171.423	-2.66756	24.9238	-177.35	10.72	52.123	-138.554	1.69792	41.4158	
6	0.05	-113.826	-11.1957	65.8194	-89.793	-23.6487	62.0452	-70.3404	-32.3779	54.0782	-49.1784	-35.1011	52.3763	-117.615	-28.1458	-21.4547	-112.037	-33.7504	-40.2537	-112.813	-38.1274	-66.415	-145.771	-23.6635	-34.0377	-140.082	-29.9884	-55.699	-141.284	-36.6601	-87.5507	-167.115	-23.7392	-24.1964	-168.543	-28.8085	-52.851	-166.67	-34.7537	-80.472	-199.655	-28.2751	-7.02616	-205.58	-31.5681	-28.2059	-211.585	-27.5954	-48.1652	-170.968	-3.81913	26.4253	-179.282	12.1672	53.9262	-142.024	4.55572	42.1146	
7	0.0583333	-115.731	-8.82654	70.4636	-91.9917	-22.7554	64.9188	-65.5801	-29.9561	52.7753	-47.487	-33.119	54.729	-116.775	-26.7633	-19.7587	-110.902	-33.7841	-44.3308	-113.759	-36.7712	-66.115	-144.071	-23.5828	-33.1468	-141.124	-30.1477	-56.0099	-137.613	-37.1093	-88.967	-167.021	-23.3677	-25.1969	-171.096	-28.8072	-53.0144	-169.762	-35.0526	-76.4157	-199.936	-27.5515	-9.31922	-203.583	-31.1069	-24.6307	-211.833	-27.9883	-50.6343	-176.522	-2.42109	25.8417	-179.187	11.9215	52.7143	-139.173	5.38531	42.0612	
8	0.0666667	-115.504	-10.6163	68.2348	-91.4864	-23.8495	62.3028	-69.9393	-31.4107	52.1715	-46.2098	-34.3506	50.2204	-117.04	-25.6434	-17.1982	-112.062	-32.0822	-45.2702	-107.89	-36.8512	-69.9968	-143.72	-22.169	-29.7419	-143.264	-29.8335	-59.5984	-140.305	-36.0807	-86.3898	-169.006	-23.367	-27.0019	-170.512	-28.3807	-52.3666	-166.393	-35.3938	-78.6272	-199.337	-27.2204	-4.63994	-203.291	-30.9276	-23.4042	-212.029	-27.1711	-47.9329	-173.862	-3.6341	25.0136	-180.606	11.8598	55.9327	-141.718	3.48643	43.5823	
9	0.075	-118.147	-9.7338	68.5053	-88.8589	-21.8735	64.0396	-67.4743	-28.0335	55.4972	-50.1818	-35.0624	51.3844	-115.562	-25.5424	-18.7593	-114.939	-30.5427	-41.7336	-111.802	-35.1529	-68.4952	-141.724	-21.6516	-32.6097	-138.85	-28.3134	-57.7749	-139.288	-35.5116	-85.5811	-165.316	-22.5333	-28.6114	-170.977	-26.6234	-51.7673	-167.809	-34.8611	-77.7532	-194.443	-27.0265	-5.7403	-204.921	-30.6808	-26.6118	-209.725	-27.5144	-48.4666	-176.449	-2.02436	24.1557	-179.505	12.1708	51.0554	-140.787	4.78102	43.6499	
10	0.0833333	-115.584	-8.83095	66.718	-91.409	-21.4093	62.8422	-67.8524	-28.5624	52.5958	-46.9354	-31.4577	51.3639	-117.73	-25.1491	-20.3844	-111.877	-30.3367	-42.7873	-111.852	-35.4217	-71.3609	-142.848	-21.1537	-34.6479	-139.859	-27.8983	-57.1638	-143.025	-34.201	-86.175	-171.763	-22.0459	-27.3465	-170.114	-26.0819	-52.5642	-166.725	-33.2529	-79.7023	-194.491	-26.9323	-6.66434	-203.686	-29.5692	-26.8813	-209.148	-27.175	-48.4069	-176.303	-1.5191	24.1555	-178.94	11.1135	50.2612	-142.597	5.98127	41.5703	
11	0.0916667	-119.935	-9.53859	69.0358	-90.2046	-19.7499	65.6326	-67.541	-26.4872	54.3652	-50.5964	-31.9551	50.3244	-116.177	-24.5467	-20.211	-111.552	-30.1183	-44.8793	-112.466	-34.9233	-67.4169	-143.394	-20.5174	-31.3255	-142.17	-26.9317	-59.0732	-141.238	-33.1463	-89.3078	-170.571	-21.8355	-24.9473	-167.007	-26.5632	-51.3237	-169.158	-32.5781	-76.0245	-194.393	-27.5963	-11.7185	-201.084	-30.7243	-24.961	-211.583	-26.6138	-48.8989	-175.897	-0.723131	22.3321	-181.866	12.6634	51.8612	-140.037	3.47779	41.5707	
12	0.1	-118.868	-8.7929	64.4192	-94.2118	-21.9789	61.4918	-67.2228	-26.11	54.2466	-48.4713	-28.4289	52.2767	-115.135	-23.4884	-21.5121	-109.694	-28.806	-43.9495	-111.047	-34.1364	-66.4881	-141.366	-20.2455	-33.3302	-141.367	-26.9401	-60.6783	-142.359	-32.2573	-85.8559	-171.868	-21.008	-27.0588	-165.608	-26.2716	-54.7601	-167.915	-32.6774	-77.9734	-197.292	-27.4957	-6.92593	-202.689	-31.0118	-24.2881	-209.842	-26.6953	-50.8045	-171.876	-3.11455	22.1921	-179.997	12.3724	54.6646	-142.883	4.68161	43.3238	
13	0.108333	-118.566	-7.99848	68.5387	-90.1401	-18.9788	62.2193	-66.4149	-24.0743	51.69	-47.1267	-27.9167	50.3579	-119.679	-21.2355	-19.5733	-113.004	-26.2988	-42.6823	-110.628	-33.5399	-71.3056	-143.278	-18.6759	-35.9282	-139.843	-26.0972	-60.7748	-140.007	-32.5881	-85.9092	-169.178	-21.0216	-29.5533	-168.289	-25.9494	-52.1609	-167.244	-33.2766	-77.0714	-194.953	-27.6574	-12.6698	-204.655	-32.701	-30.4486	-208.175	-29.3778	-52.2399	-173.542	-3.10432	21.881	-180.301	12.8447	51.7645	-143.747	8.28939	44.285	
14	0.116667	-117.443	-5.41485	67.5169	-93.094	-16.8973	63.531	-68.0909	-22.386	52.7105	-49.715	-27.0785	47.8084	-119.565	-18.4114	-23.2895	-114.511	-24.1439	-45.8038	-111.029	-32.7564	-71.7316	-142.961	-16.6763	-33.1095	-139.392	-24.7022	-60.0506	-141.115	-34.1522	-92.0697	-169.255	-20.3729	-29.3668	-168.512	-26.1447	-55.4631	-166.242	-34.607	-77.1585	-199.204	-28.8587	-12.6285	-203.726	-32.7856	-27.2494	-210.294	-32.4676	-55.2807	-179.084	-0.645713	23.5671	-181.211	9.64043	52.3528	-146.004	8.01451	41.6578	
